<svg width="60" height="60" viewBox="0 0 60 60" fill="none" xmlns="http://www.w3.org/2000/svg">
<g clip-path="url(#clip0_389_10256)">
<path d="M27.1328 9.92731C27.2248 9.89793 27.3237 9.89793 27.4157 9.92731C27.6639 10.0064 27.9099 10.0926 28.1531 10.1858V6.59625C28.1531 6.11074 27.7597 5.71735 27.2742 5.71735C26.7887 5.71735 26.3953 6.11074 26.3953 6.59625V10.1858C26.6386 10.0926 26.8845 10.0064 27.1328 9.92731Z" fill="#4FC123"/>
<path d="M32.5549 20.301C33.4147 19.2271 33.9044 17.9979 33.9044 16.6909C33.9044 13.6519 31.2647 11.0298 27.4512 9.81563C27.336 9.77907 27.2123 9.77907 27.0971 9.81563C23.2836 11.0298 20.6439 13.6519 20.6439 16.6909C20.6439 17.9979 21.1336 19.2271 21.9934 20.301H32.5549Z" fill="#4FC123"/>
<path d="M25.7043 20.1838C24.9013 19.1381 24.4467 17.9507 24.4467 16.6909C24.4467 14.1354 26.3142 11.8758 29.1756 10.4991C28.6174 10.2313 28.0412 10.0029 27.4512 9.81563C27.336 9.77907 27.2123 9.77907 27.0971 9.81563C23.2836 11.0298 20.6439 13.6519 20.6439 16.6909C20.6439 17.9504 21.0976 19.1381 21.9 20.1838H25.7043Z" fill="#47A920"/>
<path d="M22.4111 21.8244V43.6677C25.2786 45.5987 28.5808 46.9312 32.1374 47.4854V21.8244H22.4111Z" fill="#FEF1DA"/>
<path d="M22.4111 21.9416V43.5387C23.6052 44.3466 24.8697 45.0452 26.1892 45.6261V21.9416H22.4111Z" fill="#FAE2C0"/>
<path d="M28.6117 30.3317H25.9367C25.8726 30.3317 25.8112 30.3063 25.766 30.261C25.7207 30.2158 25.6953 30.1544 25.6953 30.0903V26.595C25.6953 25.723 26.4021 25.016 27.2742 25.016C28.1462 25.016 28.8532 25.7229 28.8532 26.595V30.0903C28.8532 30.1544 28.8277 30.2157 28.7824 30.261C28.7371 30.3063 28.6757 30.3317 28.6117 30.3317Z" fill="#80D261"/>
<path d="M26.9629 30.0902V26.5949C26.9629 25.9484 27.3518 25.3934 27.908 25.1492C27.7083 25.0613 27.4925 25.0159 27.2742 25.0159C26.4022 25.0159 25.6953 25.7227 25.6953 26.5949V30.0902C25.6953 30.1542 25.7207 30.2156 25.766 30.2609C25.8112 30.3062 25.8726 30.3316 25.9367 30.3316H27.2043C27.1726 30.3316 27.1412 30.3254 27.1119 30.3133C27.0826 30.3011 27.056 30.2834 27.0335 30.2609C27.0111 30.2385 26.9933 30.2119 26.9812 30.1826C26.9691 30.1533 26.9629 30.1219 26.9629 30.0902Z" fill="#4FC123"/>
<path d="M28.6117 39.6896H25.9367C25.8726 39.6896 25.8112 39.6642 25.766 39.6189C25.7207 39.5737 25.6953 39.5123 25.6953 39.4482V35.9529C25.6953 35.0809 26.4021 34.3739 27.2742 34.3739C28.1462 34.3739 28.8532 35.0808 28.8532 35.9529V39.4482C28.8532 39.5123 28.8277 39.5736 28.7824 39.6189C28.7371 39.6642 28.6757 39.6896 28.6117 39.6896Z" fill="#80D261"/>
<path d="M26.9629 39.4481V35.9528C26.9629 35.3064 27.3518 34.7514 27.908 34.5071C27.7083 34.4192 27.4925 34.3738 27.2742 34.3738C26.4022 34.3738 25.6953 35.0807 25.6953 35.9528V39.4481C25.6953 39.5121 25.7207 39.5735 25.766 39.6188C25.8112 39.6641 25.8726 39.6895 25.9367 39.6895H27.2043C27.1726 39.6895 27.1412 39.6833 27.1119 39.6712C27.0826 39.6591 27.056 39.6413 27.0335 39.6189C27.0111 39.5964 26.9933 39.5698 26.9812 39.5405C26.9691 39.5112 26.9629 39.4798 26.9629 39.4481Z" fill="#4FC123"/>
<path d="M33.4637 21.9416H21.0847C20.5992 21.9416 20.2058 21.5482 20.2058 21.0627C20.2058 20.5772 20.5992 20.1838 21.0847 20.1838H33.4637C33.9492 20.1838 34.3426 20.5772 34.3426 21.0627C34.3426 21.5482 33.9491 21.9416 33.4637 21.9416Z" fill="#80D261"/>
<path d="M41.1604 21.6746C41.2524 21.6452 41.3513 21.6452 41.4434 21.6746C41.6951 21.7548 41.9408 21.8413 42.1807 21.9331V18.3436C42.1807 17.8581 41.7873 17.4647 41.3018 17.4647C40.8163 17.4647 40.4229 17.8581 40.4229 18.3436V21.9331C40.6662 21.8399 40.9121 21.7537 41.1604 21.6746Z" fill="#4FC123"/>
<path d="M46.5826 32.0483C47.4424 30.9744 47.9322 29.7452 47.9322 28.4382C47.9322 25.3992 45.2924 22.7771 41.4789 21.5629C41.3637 21.5264 41.24 21.5264 41.1249 21.5629C37.3113 22.7771 34.6716 25.3992 34.6716 28.4382C34.6716 29.7452 35.1613 30.9744 36.0211 32.0483H46.5826Z" fill="#4FC123"/>
<path d="M39.7104 31.9311C38.9068 30.8854 38.4506 29.6982 38.4506 28.4382C38.4506 25.8792 40.3233 23.6169 43.1913 22.2408C42.6368 21.9755 42.0646 21.749 41.4788 21.5629C41.3636 21.5264 41.2399 21.5264 41.1247 21.5629C37.3112 22.7771 34.6714 25.3992 34.6714 28.4382C34.6714 29.698 35.127 30.8853 35.9299 31.9311H39.7104Z" fill="#47A920"/>
<path d="M36.4387 33.5718V47.7675C39.8054 47.6904 43.1186 46.9092 46.165 45.4743V33.5718H36.4387Z" fill="#FEF1DA"/>
<path d="M36.4387 33.689V47.6504C37.6983 47.6212 38.9536 47.4934 40.1932 47.2682V33.689H36.4387Z" fill="#FAE2C0"/>
<path d="M42.6393 41.8914H39.9643C39.9003 41.8914 39.8389 41.8659 39.7936 41.8207C39.7483 41.7754 39.7229 41.714 39.7229 41.65V38.1546C39.7229 37.2826 40.4298 36.5756 41.3019 36.5756C42.1739 36.5756 42.8809 37.2825 42.8809 38.1546V41.65C42.8808 41.714 42.8553 41.7754 42.8101 41.8206C42.7648 41.8659 42.7034 41.8913 42.6393 41.8914Z" fill="#80D261"/>
<path d="M40.9668 41.6498V38.1545C40.9668 37.5034 41.3612 36.9446 41.9238 36.7031C41.7273 36.6188 41.5157 36.5753 41.3019 36.5755C40.4299 36.5755 39.7229 37.2824 39.7229 38.1545V41.6498C39.7229 41.7139 39.7483 41.7753 39.7936 41.8205C39.8389 41.8658 39.9003 41.8912 39.9643 41.8912H41.2083C41.1765 41.8913 41.1451 41.885 41.1159 41.8729C41.0866 41.8608 41.0599 41.843 41.0375 41.8206C41.0151 41.7982 40.9973 41.7715 40.9852 41.7422C40.9731 41.7129 40.9668 41.6815 40.9668 41.6498Z" fill="#4FC123"/>
<path d="M47.4914 33.689H35.1124C34.6269 33.689 34.2335 33.2956 34.2335 32.8101C34.2335 32.3246 34.6269 31.9312 35.1124 31.9312H47.4914C47.9769 31.9312 48.3703 32.3246 48.3703 32.8101C48.3703 33.2956 47.9768 33.689 47.4914 33.689Z" fill="#80D261"/>
<path d="M48.6248 13.1354C49.1719 14.8083 49.7792 15.4155 51.4521 15.9628C51.6756 16.0359 51.6756 16.3496 51.4521 16.4228C49.7792 16.9699 49.172 17.5772 48.6248 19.2501C48.5516 19.4736 48.2379 19.4736 48.1648 19.2501C47.6176 17.5772 47.0104 16.97 45.3374 16.4228C45.1139 16.3496 45.1139 16.0359 45.3374 15.9628C47.0104 15.4157 47.6175 14.8084 48.1648 13.1354C48.2379 12.9121 48.5516 12.9121 48.6248 13.1354Z" fill="#FED402"/>
<path d="M46.8949 15.2125C46.5026 15.5146 46.0061 15.7441 45.3374 15.9629C45.114 16.0361 45.114 16.3498 45.3374 16.4229C47.0103 16.97 47.6176 17.5773 48.1648 19.2503C48.2379 19.4738 48.5516 19.4738 48.6247 19.2503C48.817 18.6622 49.0179 18.2079 49.2688 17.8396C48.7766 16.3554 48.2258 15.7214 46.8949 15.2125Z" fill="#FAC600"/>
<path d="M47.0414 2.35956C47.5885 4.03253 48.1958 4.63968 49.8688 5.18695C50.0922 5.26007 50.0922 5.57378 49.8688 5.64691C48.1958 6.19406 47.5886 6.80132 47.0414 8.47429C46.9683 8.69777 46.6545 8.69777 46.5814 8.47429C46.0343 6.80144 45.427 6.19417 43.754 5.64691C43.5306 5.57378 43.5306 5.26007 43.754 5.18695C45.427 4.6398 46.0341 4.03253 46.5814 2.35956C46.6544 2.13609 46.9683 2.13609 47.0414 2.35956Z" fill="#FED402"/>
<path d="M45.2349 4.49603C44.8549 4.76955 44.3789 4.98248 43.754 5.18697C43.5305 5.2601 43.5305 5.57381 43.754 5.64693C45.4269 6.1942 46.0342 6.80135 46.5814 8.47431C46.6545 8.69779 46.9682 8.69779 47.0413 8.47431C47.2374 7.87513 47.442 7.41435 47.6996 7.0424C47.2016 5.60498 46.6251 4.99912 45.2349 4.49603Z" fill="#FAC600"/>
<path d="M38.9684 8.07108L37.1657 9.87377C37.1432 9.89619 37.1254 9.92281 37.1133 9.95211C37.1012 9.9814 37.0949 10.0128 37.0949 10.0445C37.0949 10.0762 37.1012 10.1076 37.1133 10.1369C37.1254 10.1662 37.1432 10.1928 37.1657 10.2153L38.9684 12.018C38.9908 12.0404 39.0174 12.0582 39.0467 12.0703C39.076 12.0825 39.1074 12.0887 39.1391 12.0887C39.1708 12.0887 39.2022 12.0825 39.2315 12.0703C39.2608 12.0582 39.2874 12.0404 39.3098 12.018L41.1127 10.2153C41.1351 10.1928 41.1529 10.1662 41.165 10.1369C41.1772 10.1076 41.1834 10.0762 41.1834 10.0445C41.1834 10.0128 41.1772 9.9814 41.165 9.95211C41.1529 9.92281 41.1351 9.89619 41.1127 9.87377L39.3098 8.07108C39.2645 8.02584 39.2031 8.00043 39.1391 8.00043C39.0751 8.00043 39.0137 8.02584 38.9684 8.07108Z" fill="#FED402"/>
<path d="M38.7427 10.2154C38.7202 10.193 38.7024 10.1663 38.6903 10.137C38.6782 10.1078 38.6719 10.0763 38.6719 10.0446C38.6719 10.0129 38.6782 9.98152 38.6903 9.95223C38.7024 9.92293 38.7202 9.89631 38.7427 9.8739L39.9277 8.6889L39.31 8.0712C39.2647 8.02596 39.2032 8.00055 39.1392 8.00055C39.0752 8.00055 39.0138 8.02596 38.9685 8.0712L37.1658 9.87401C37.1434 9.89643 37.1256 9.92305 37.1134 9.95235C37.1013 9.98164 37.095 10.013 37.095 10.0448C37.095 10.0765 37.1013 10.1079 37.1134 10.1372C37.1256 10.1665 37.1434 10.1931 37.1658 10.2155L38.9685 12.0182C38.9909 12.0406 39.0175 12.0584 39.0468 12.0706C39.0761 12.0827 39.1075 12.0889 39.1392 12.0889C39.1709 12.0889 39.2023 12.0827 39.2316 12.0706C39.2609 12.0584 39.2875 12.0406 39.31 12.0182L39.9277 11.4005L38.7427 10.2154Z" fill="#FAC600"/>
<path d="M59.7687 26.26C58.4514 38.2935 48.2556 47.6571 35.8713 47.6571C22.5928 47.6571 11.8284 36.8927 11.8284 23.6142C11.8284 11.9302 20.1634 2.19422 31.2115 0.0242578C30.8079 0.00816603 30.4039 7.85046e-05 30 0C13.4314 0 0 13.4314 0 30C0 46.5686 13.4314 60 30 60C46.5686 60 60 46.5686 60 30C60 28.7334 59.9211 27.4853 59.7687 26.26Z" fill="#FED402"/>
<path d="M33.6821 56.3178C17.1136 56.3178 3.68215 42.8864 3.68215 26.3178C3.68215 18.971 6.32461 12.2423 10.7089 7.02667C4.16215 12.5299 0 20.7783 0 30C0 46.5685 13.4314 60 30 60C39.2217 60 47.4701 55.8378 52.9733 49.2912C47.7577 53.6755 41.029 56.3178 33.6821 56.3178Z" fill="#FAC600"/>
</g>
<defs>
<clipPath id="clip0_389_10256">
<rect width="60" height="60" fill="white"/>
</clipPath>
</defs>
</svg>
