<svg width="24" height="24" viewBox="0 0 24 24" fill="none" xmlns="http://www.w3.org/2000/svg">
<g clip-path="url(#clip0_213_9613)">
<path fill-rule="evenodd" clip-rule="evenodd" d="M5.17241 12C5.17241 11.2206 5.30178 10.4732 5.53297 9.77232L1.4886 6.68401C0.700348 8.28432 0.256348 10.0877 0.256348 12C0.256348 13.9108 0.699973 15.7129 1.48691 17.3123L5.52904 14.2179C5.3001 13.5203 5.17241 12.7757 5.17241 12Z" fill="#FBBC05"/>
<path fill-rule="evenodd" clip-rule="evenodd" d="M12.2733 4.90912C13.9667 4.90912 15.4961 5.50912 16.6978 6.49088L20.1935 3C18.0633 1.14544 15.3322 0 12.2733 0C7.52434 0 3.44284 2.71575 1.48853 6.684L5.53271 9.77231C6.46459 6.94369 9.1209 4.90912 12.2733 4.90912Z" fill="#EA4335"/>
<path fill-rule="evenodd" clip-rule="evenodd" d="M12.2733 19.0909C9.12109 19.0909 6.46478 17.0563 5.5329 14.2277L1.48853 17.3154C3.44284 21.2843 7.52434 24 12.2733 24C15.2043 24 18.0028 22.9592 20.103 21.0092L16.2641 18.0414C15.1809 18.7238 13.8168 19.0909 12.2733 19.0909Z" fill="#34A853"/>
<path fill-rule="evenodd" clip-rule="evenodd" d="M23.7441 12C23.7441 11.2909 23.6348 10.5272 23.4709 9.81825H12.2734V14.4546H18.7189C18.3966 16.0354 17.5195 17.2506 16.2642 18.0414L20.1031 21.0092C22.3092 18.9617 23.7441 15.9114 23.7441 12Z" fill="#4285F4"/>
</g>
<defs>
<clipPath id="clip0_213_9613">
<rect width="24" height="24" fill="white" transform="translate(0.000244141)"/>
</clipPath>
</defs>
</svg>
