<svg width="25" height="24" viewBox="0 0 25 24" fill="none" xmlns="http://www.w3.org/2000/svg">
<path d="M20.4298 5.85L14.4898 2.42C13.5198 1.86 12.3198 1.86 11.3398 2.42L5.40984 5.85C4.43984 6.41 3.83984 7.45 3.83984 8.58V15.42C3.83984 16.54 4.43984 17.58 5.40984 18.15L11.3498 21.58C12.3198 22.14 13.5198 22.14 14.4998 21.58L20.4398 18.15C21.4098 17.59 22.0098 16.55 22.0098 15.42V8.58C21.9998 7.45 21.3998 6.42 20.4298 5.85ZM12.9198 7.34C14.2098 7.34 15.2498 8.38 15.2498 9.67C15.2498 10.96 14.2098 12 12.9198 12C11.6298 12 10.5898 10.96 10.5898 9.67C10.5898 8.39 11.6298 7.34 12.9198 7.34ZM15.5998 16.66H10.2398C9.42984 16.66 8.95984 15.76 9.40984 15.09C10.0898 14.08 11.4098 13.4 12.9198 13.4C14.4298 13.4 15.7498 14.08 16.4298 15.09C16.8798 15.75 16.3998 16.66 15.5998 16.66Z" fill="#FFD200"/>
</svg>
