<svg width="25" height="24" viewBox="0 0 25 24" fill="none" xmlns="http://www.w3.org/2000/svg">
<path d="M12.9201 22.75C12.2501 22.75 11.5701 22.58 10.9701 22.23L5.03008 18.8C3.83008 18.1 3.08008 16.81 3.08008 15.42V8.57999C3.08008 7.18999 3.83008 5.89999 5.03008 5.19999L10.9701 1.77C12.1701 1.07 13.6601 1.07 14.8701 1.77L20.8101 5.19999C22.0101 5.89999 22.7601 7.18999 22.7601 8.57999V15.42C22.7601 16.81 22.0101 18.1 20.8101 18.8L14.8701 22.23C14.2701 22.58 13.5901 22.75 12.9201 22.75ZM12.9201 2.74998C12.5101 2.74998 12.0901 2.85998 11.7201 3.06998L5.78008 6.49998C5.04008 6.92998 4.58008 7.71999 4.58008 8.57999V15.42C4.58008 16.27 5.04008 17.07 5.78008 17.5L11.7201 20.93C12.4601 21.36 13.3801 21.36 14.1201 20.93L20.0601 17.5C20.8001 17.07 21.2601 16.28 21.2601 15.42V8.57999C21.2601 7.72999 20.8001 6.92998 20.0601 6.49998L14.1201 3.06998C13.7501 2.85998 13.3301 2.74998 12.9201 2.74998Z" fill="white"/>
<path d="M12.9198 11.7501C11.2198 11.7501 9.83984 10.37 9.83984 8.67004C9.83984 6.97004 11.2198 5.59009 12.9198 5.59009C14.6198 5.59009 15.9998 6.97004 15.9998 8.67004C15.9998 10.37 14.6198 11.7501 12.9198 11.7501ZM12.9198 7.09009C12.0498 7.09009 11.3398 7.80004 11.3398 8.67004C11.3398 9.54004 12.0498 10.2501 12.9198 10.2501C13.7898 10.2501 14.4998 9.54004 14.4998 8.67004C14.4998 7.80004 13.7898 7.09009 12.9198 7.09009Z" fill="white"/>
<path d="M16.9199 17.4101C16.5099 17.4101 16.1699 17.0701 16.1699 16.6601C16.1699 15.2801 14.7099 14.1501 12.9199 14.1501C11.1299 14.1501 9.66992 15.2801 9.66992 16.6601C9.66992 17.0701 9.32992 17.4101 8.91992 17.4101C8.50992 17.4101 8.16992 17.0701 8.16992 16.6601C8.16992 14.4501 10.2999 12.6501 12.9199 12.6501C15.5399 12.6501 17.6699 14.4501 17.6699 16.6601C17.6699 17.0701 17.3299 17.4101 16.9199 17.4101Z" fill="white"/>
</svg>
