<svg width="25" height="24" viewBox="0 0 25 24" fill="none" xmlns="http://www.w3.org/2000/svg">
<path d="M11.7098 2.44995C12.3998 1.85995 13.5298 1.85995 14.2298 2.44995L15.8098 3.81005C16.1098 4.07005 16.6698 4.28002 17.0698 4.28002H18.7698C19.8298 4.28002 20.6998 5.14996 20.6998 6.20996V7.91003C20.6998 8.30003 20.9098 8.87004 21.1698 9.17004L22.5298 10.75C23.1198 11.44 23.1198 12.57 22.5298 13.27L21.1698 14.85C20.9098 15.15 20.6998 15.71 20.6998 16.11V17.8101C20.6998 18.8701 19.8298 19.74 18.7698 19.74H17.0698C16.6798 19.74 16.1098 19.95 15.8098 20.21L14.2298 21.5699C13.5398 22.1599 12.4098 22.1599 11.7098 21.5699L10.1299 20.21C9.82985 19.95 9.26984 19.74 8.86984 19.74H7.13983C6.07983 19.74 5.20984 18.8701 5.20984 17.8101V16.1C5.20984 15.71 4.99985 15.15 4.74985 14.85L3.39984 13.26C2.81984 12.57 2.81984 11.45 3.39984 10.76L4.74985 9.17004C4.99985 8.87004 5.20984 8.31004 5.20984 7.92004V6.20996C5.20984 5.14996 6.07983 4.28002 7.13983 4.28002H8.86984C9.25984 4.28002 9.82985 4.07005 10.1299 3.81005L11.7098 2.44995Z" stroke="white" stroke-width="1.5" stroke-linecap="round" stroke-linejoin="round"/>
<path d="M10.8501 14.82L12.3001 15.94C12.4901 16.13 12.9101 16.22 13.1901 16.22H14.9601C15.5201 16.22 16.1301 15.8 16.2701 15.24L17.3901 11.82C17.6201 11.17 17.2001 10.6 16.5001 10.6H14.6301C14.3501 10.6 14.1201 10.3701 14.1601 10.0401L14.3901 8.54008C14.4801 8.12008 14.2001 7.65005 13.7801 7.51005C13.4101 7.37005 12.9401 7.56 12.7501 7.84L10.8301 10.69" stroke="white" stroke-width="1.5" stroke-miterlimit="10"/>
<path d="M8.45996 14.8199V10.24C8.45996 9.57999 8.73996 9.34998 9.39996 9.34998H9.86996C10.52 9.34998 10.81 9.57999 10.81 10.24V14.8199C10.81 15.4699 10.53 15.71 9.86996 15.71H9.39996C8.73996 15.71 8.45996 15.4799 8.45996 14.8199Z" stroke="white" stroke-width="1.5" stroke-linecap="round" stroke-linejoin="round"/>
</svg>
