<svg width="25" height="25" viewBox="0 0 25 25" fill="none" xmlns="http://www.w3.org/2000/svg">
<path d="M10.4499 4.36482L10.45 4.36492L10.4586 4.35745L12.0251 2.99051C12.5404 2.559 13.3936 2.56267 13.8943 2.99018C13.8945 2.99036 13.8947 2.99055 13.8949 2.99073L15.4724 4.34856C15.4726 4.34877 15.4729 4.34898 15.4731 4.34919C15.6823 4.53024 15.9578 4.67377 16.2219 4.7719C16.4863 4.87013 16.7871 4.94071 17.0598 4.94071H18.7598C19.5437 4.94071 20.1898 5.58686 20.1898 6.37071V8.07071C20.1898 8.34774 20.2601 8.64859 20.359 8.91321C20.4577 9.1775 20.6014 9.44957 20.7814 9.65747C20.7816 9.65771 20.7818 9.65794 20.782 9.65818L22.1398 11.2357C22.14 11.2359 22.1402 11.2361 22.1404 11.2363C22.5695 11.7389 22.5704 12.6031 22.1488 13.107L20.792 14.6832C20.7917 14.6835 20.7915 14.6838 20.7912 14.6841C20.6102 14.8933 20.4668 15.1688 20.3687 15.4328C20.2704 15.6971 20.1998 15.998 20.1998 16.2707V17.9707C20.1998 18.7546 19.5537 19.4007 18.7698 19.4007H17.0698C16.7928 19.4007 16.492 19.471 16.2273 19.5698C15.9631 19.6686 15.6911 19.8122 15.4833 19.9921C15.483 19.9924 15.4827 19.9926 15.4824 19.9929L13.9076 21.3484C13.907 21.3489 13.9064 21.3494 13.9058 21.3499C13.3907 21.7824 12.5365 21.7791 12.0355 21.3513C12.0352 21.3511 12.035 21.3509 12.0348 21.3507L10.4573 19.9929C10.4571 19.9927 10.4568 19.9925 10.4566 19.9923C10.2474 19.8112 9.97186 19.6677 9.70775 19.5695C9.44341 19.4713 9.14254 19.4007 8.86984 19.4007H7.13984C6.35599 19.4007 5.70984 18.7546 5.70984 17.9707V16.2607C5.70984 15.9877 5.63909 15.6893 5.5425 15.4284C5.44566 15.1668 5.30584 14.8969 5.13395 14.6906L5.13397 14.6906L5.13099 14.6871L3.78259 13.099C3.78234 13.0987 3.7821 13.0984 3.78186 13.0981C3.35917 12.5943 3.35917 11.7471 3.78186 11.2433C3.7821 11.243 3.78234 11.2427 3.78259 11.2424L5.13099 9.65433L5.13101 9.65434L5.13395 9.6508C5.30584 9.44454 5.44566 9.17466 5.5425 8.91304C5.63909 8.6521 5.70984 8.35374 5.70984 8.08071V6.37071C5.70984 5.58686 6.35599 4.94071 7.13984 4.94071H8.86984C9.14231 4.94071 9.44267 4.87021 9.70549 4.77398C9.96869 4.67762 10.2423 4.53787 10.4499 4.36482ZM16.6698 10.3207H14.7926L15.022 8.83017C15.1673 8.11819 14.7187 7.37143 14.0323 7.13129C13.6878 6.99876 13.331 7.02592 13.0378 7.12901C12.7478 7.23095 12.4733 7.42332 12.3027 7.68494L11.044 9.55365C10.9985 9.48565 10.9452 9.42132 10.8827 9.36166C10.5766 9.06928 10.1574 8.99071 9.73984 8.99071H9.24984C8.83226 8.99071 8.41306 9.06928 8.10698 9.36166C7.79524 9.65944 7.70984 10.0733 7.70984 10.4807V15.2607C7.70984 15.6681 7.79524 16.082 8.10698 16.3798C8.41306 16.6721 8.83226 16.7507 9.24984 16.7507H9.72984C10.1321 16.7507 10.5324 16.6773 10.8331 16.4085C10.9098 16.3399 10.9735 16.2645 11.0264 16.184L11.9019 16.869C12.0856 17.0402 12.328 17.141 12.528 17.2002C12.749 17.2655 12.9892 17.3007 13.1998 17.3007H15.0498C15.9007 17.3007 16.733 16.6857 16.9497 15.872L18.1133 12.3316C18.2746 11.87 18.2454 11.3756 17.9783 10.9671L17.9737 10.9599L17.9687 10.953C17.6691 10.5271 17.1825 10.3207 16.6698 10.3207Z" fill="#FFD200" stroke="#FFD200"/>
</svg>
