<svg width="25" height="24" viewBox="0 0 25 24" fill="none" xmlns="http://www.w3.org/2000/svg">
<path d="M16.6299 2H8.24994C4.60994 2 2.43994 4.17 2.43994 7.81V16.19C2.43994 19.83 4.60994 22 8.24994 22H16.6299C20.2699 22 22.4399 19.83 22.4399 16.19V7.81C22.4399 4.17 20.2699 2 16.6299 2ZM10.4099 14.9L8.15994 17.15C8.00994 17.3 7.81994 17.37 7.62994 17.37C7.43994 17.37 7.23994 17.3 7.09994 17.15L6.34994 16.4C6.04994 16.11 6.04994 15.63 6.34994 15.34C6.63994 15.05 7.10994 15.05 7.40994 15.34L7.62994 15.56L9.34994 13.84C9.63994 13.55 10.1099 13.55 10.4099 13.84C10.6999 14.13 10.6999 14.61 10.4099 14.9ZM10.4099 7.9L8.15994 10.15C8.00994 10.3 7.81994 10.37 7.62994 10.37C7.43994 10.37 7.23994 10.3 7.09994 10.15L6.34994 9.4C6.04994 9.11 6.04994 8.63 6.34994 8.34C6.63994 8.05 7.10994 8.05 7.40994 8.34L7.62994 8.56L9.34994 6.84C9.63994 6.55 10.1099 6.55 10.4099 6.84C10.6999 7.13 10.6999 7.61 10.4099 7.9ZM17.9999 16.62H12.7499C12.3399 16.62 11.9999 16.28 11.9999 15.87C11.9999 15.46 12.3399 15.12 12.7499 15.12H17.9999C18.4199 15.12 18.7499 15.46 18.7499 15.87C18.7499 16.28 18.4199 16.62 17.9999 16.62ZM17.9999 9.62H12.7499C12.3399 9.62 11.9999 9.28 11.9999 8.87C11.9999 8.46 12.3399 8.12 12.7499 8.12H17.9999C18.4199 8.12 18.7499 8.46 18.7499 8.87C18.7499 9.28 18.4199 9.62 17.9999 9.62Z" fill="#FFD200"/>
</svg>
