<svg width="25" height="24" viewBox="0 0 25 24" fill="none" xmlns="http://www.w3.org/2000/svg">
<path d="M16.48 4.25C16.48 5.49 15.47 6.5 14.23 6.5H10.73C10.11 6.5 9.54998 6.25 9.13998 5.84C8.72998 5.43 8.47998 4.87 8.47998 4.25C8.47998 3.01 9.48998 2 10.73 2H14.23C14.85 2 15.41 2.25 15.82 2.66C16.23 3.07 16.48 3.63 16.48 4.25Z" fill="#FFD200"/>
<path d="M19.31 5.02999C19.08 4.83999 18.82 4.68999 18.54 4.57999C18.25 4.46999 17.96 4.69999 17.9 4.99999C17.56 6.70999 16.05 7.99999 14.23 7.99999H10.73C9.72998 7.99999 8.78998 7.60999 8.07998 6.89999C7.55998 6.37999 7.19998 5.71999 7.05998 5.00999C6.99998 4.70999 6.69998 4.46999 6.40998 4.58999C5.24998 5.05999 4.47998 6.11999 4.47998 8.24999V18C4.47998 21 6.26998 22 8.47998 22H16.48C18.69 22 20.48 21 20.48 18V8.24999C20.48 6.61999 20.03 5.61999 19.31 5.02999ZM8.47998 12.25H12.48C12.89 12.25 13.23 12.59 13.23 13C13.23 13.41 12.89 13.75 12.48 13.75H8.47998C8.06998 13.75 7.72998 13.41 7.72998 13C7.72998 12.59 8.06998 12.25 8.47998 12.25ZM16.48 17.75H8.47998C8.06998 17.75 7.72998 17.41 7.72998 17C7.72998 16.59 8.06998 16.25 8.47998 16.25H16.48C16.89 16.25 17.23 16.59 17.23 17C17.23 17.41 16.89 17.75 16.48 17.75Z" fill="#FFD200"/>
</svg>
