<svg width="25" height="24" viewBox="0 0 25 24" fill="none" xmlns="http://www.w3.org/2000/svg">
<path d="M18.0601 9.62H12.8101C12.4001 9.62 12.0601 9.28 12.0601 8.87C12.0601 8.46 12.4001 8.12 12.8101 8.12H18.0601C18.4701 8.12 18.8101 8.46 18.8101 8.87C18.8101 9.28 18.4801 9.62 18.0601 9.62Z" fill="white"/>
<path d="M7.56 10.38C7.37 10.38 7.18 10.31 7.03 10.16L6.28 9.41001C5.99 9.12001 5.99 8.64001 6.28 8.35001C6.57 8.06001 7.05 8.06001 7.34 8.35001L7.56 8.57001L9.28 6.85001C9.57 6.56001 10.05 6.56001 10.34 6.85001C10.63 7.14001 10.63 7.62001 10.34 7.91001L8.09 10.16C7.95 10.3 7.76 10.38 7.56 10.38Z" fill="white"/>
<path d="M18.0601 16.62H12.8101C12.4001 16.62 12.0601 16.28 12.0601 15.87C12.0601 15.46 12.4001 15.12 12.8101 15.12H18.0601C18.4701 15.12 18.8101 15.46 18.8101 15.87C18.8101 16.28 18.4801 16.62 18.0601 16.62Z" fill="white"/>
<path d="M7.56 17.38C7.37 17.38 7.18 17.31 7.03 17.16L6.28 16.41C5.99 16.12 5.99 15.64 6.28 15.35C6.57 15.06 7.05 15.06 7.34 15.35L7.56 15.57L9.28 13.85C9.57 13.56 10.05 13.56 10.34 13.85C10.63 14.14 10.63 14.62 10.34 14.91L8.09 17.16C7.95 17.3 7.76 17.38 7.56 17.38Z" fill="white"/>
<path d="M15.4399 22.75H9.43994C4.00994 22.75 1.68994 20.43 1.68994 15V9C1.68994 3.57 4.00994 1.25 9.43994 1.25H15.4399C20.8699 1.25 23.1899 3.57 23.1899 9V15C23.1899 20.43 20.8699 22.75 15.4399 22.75ZM9.43994 2.75C4.82994 2.75 3.18994 4.39 3.18994 9V15C3.18994 19.61 4.82994 21.25 9.43994 21.25H15.4399C20.0499 21.25 21.6899 19.61 21.6899 15V9C21.6899 4.39 20.0499 2.75 15.4399 2.75H9.43994Z" fill="white"/>
</svg>
