<svg width="25" height="24" viewBox="0 0 25 24" fill="none" xmlns="http://www.w3.org/2000/svg">
<path d="M16.48 22.75H8.47998C5.45998 22.75 3.72998 21.02 3.72998 18V8.25C3.72998 5.1 5.32998 3.5 8.47998 3.5C8.88998 3.5 9.22998 3.84 9.22998 4.25C9.22998 4.65 9.38998 5.03 9.66998 5.31C9.94998 5.59 10.33 5.75 10.73 5.75H14.23C15.06 5.75 15.73 5.08 15.73 4.25C15.73 3.84 16.07 3.5 16.48 3.5C19.63 3.5 21.23 5.1 21.23 8.25V18C21.23 21.02 19.5 22.75 16.48 22.75ZM7.82996 5.02C6.24996 5.15 5.22998 5.86 5.22998 8.25V18C5.22998 20.22 6.25998 21.25 8.47998 21.25H16.48C18.7 21.25 19.73 20.22 19.73 18V8.25C19.73 5.86 18.71 5.16 17.13 5.02C16.79 6.3 15.62 7.25 14.23 7.25H10.73C9.92998 7.25 9.17999 6.94 8.60999 6.37C8.22999 5.99 7.96996 5.53 7.82996 5.02Z" fill="white"/>
<path d="M14.23 7.25H10.73C9.92998 7.25 9.17999 6.94 8.60999 6.37C8.03999 5.79999 7.72998 5.05 7.72998 4.25C7.72998 2.6 9.07998 1.25 10.73 1.25H14.23C15.03 1.25 15.78 1.56 16.35 2.13C16.92 2.7 17.23 3.45 17.23 4.25C17.23 5.9 15.88 7.25 14.23 7.25ZM10.73 2.75C9.89998 2.75 9.22998 3.42 9.22998 4.25C9.22998 4.65 9.38998 5.03 9.66998 5.31C9.94998 5.59 10.33 5.75 10.73 5.75H14.23C15.06 5.75 15.73 5.08 15.73 4.25C15.73 3.85 15.57 3.47 15.29 3.19C15.01 2.91 14.63 2.75 14.23 2.75H10.73Z" fill="white"/>
<path d="M12.48 13.75H8.47998C8.06998 13.75 7.72998 13.41 7.72998 13C7.72998 12.59 8.06998 12.25 8.47998 12.25H12.48C12.89 12.25 13.23 12.59 13.23 13C13.23 13.41 12.89 13.75 12.48 13.75Z" fill="white"/>
<path d="M16.48 17.75H8.47998C8.06998 17.75 7.72998 17.41 7.72998 17C7.72998 16.59 8.06998 16.25 8.47998 16.25H16.48C16.89 16.25 17.23 16.59 17.23 17C17.23 17.41 16.89 17.75 16.48 17.75Z" fill="white"/>
</svg>
